<?xml version="1.0" encoding="UTF-8" standalone="no"?>
<svg
   id="Layer_1"
   data-name="Layer 1"
   viewBox="0 0 81.67 81.67"
   version="1.1"
   xmlns="http://www.w3.org/2000/svg"
   xmlns:svg="http://www.w3.org/2000/svg">
  <defs
     id="defs4">
    <style
       id="style2">.cls-1{fill:#fefeff;}.cls-2{fill:#dd94a6;}</style>
  </defs>
  <ellipse
     style="fill:#ae1857;fill-opacity:1;stroke-width:0.251959"
     id="path1050"
     cx="40.284237"
     cy="40.284237"
     rx="35.563427"
     ry="34.933987" />
  <path
     class="cls-1"
     d="M 54.709066,45.22358 C 46.112994,44.71483 41.256685,41.298938 41.256685,41.298938 v 0 0 c 0,0 3.470714,4.803392 3.988631,13.214285 0.517916,8.410893 9.18125,11.351072 15.120476,5.516964 C 66.305018,54.19608 63.305137,45.73233 54.709066,45.22358 Z m 4.984107,14.231786 a 9.0736309,8.9130357 0 0 1 -5.811429,2.761786 9.9076785,9.7323214 0 0 0 3.699405,-2.352143 c 2.508869,-2.464464 3.443809,-5.583036 2.48869,-8.338214 -1.008928,-2.900536 -3.840654,-4.770357 -7.57369,-4.988393 a 17.555357,17.244643 0 0 1 -7.936905,-2.54375 32.521131,31.945536 0 0 0 10.042203,2.1275 c 3.739761,0.224643 6.571488,2.087857 7.57369,4.988393 0.955119,2.761785 0.0269,5.880357 -2.481964,8.344821 z"
     id="path6"
     style="stroke-width:0.66664" />
  <path
     class="cls-1"
     d="M 32.102339,23.016973 C 23.506268,22.501616 18.649959,19.09233 18.649959,19.09233 v 0 0 c 0,0 3.47744,4.81 3.995357,13.214286 0.517916,8.404286 9.174523,11.357679 15.120476,5.516964 5.945952,-5.840714 2.925893,-14.297857 -5.663453,-14.806607 z m 4.984108,14.225179 a 9.04,8.88 0 0 1 -5.811429,2.761786 9.8067857,9.6332143 0 0 0 3.72631,-2.345536 c 2.508869,-2.464464 3.437083,-5.583036 2.481964,-8.344822 -1.002203,-2.900535 -3.833929,-4.76375 -7.573691,-4.988392 a 17.427559,17.119107 0 0 1 -7.977261,-2.54375 32.548036,31.971964 0 0 0 10.089285,2.134107 c 3.739762,0.224643 6.571488,2.087857 7.573691,4.988393 0.928214,2.755178 0,5.906785 -2.508869,8.338214 z"
     id="path8"
     style="stroke-width:0.66664" />
  <path
     class="cls-2"
     d="m 23.721506,49.438938 c 1.345238,-1.321429 1.506667,-3.244108 0.390119,-4.334286 -1.224166,-1.2025 -4.304762,-0.455893 -6.477321,-1.645179 1.21744,2.1275 0.450655,5.160179 1.674821,6.362679 1.109822,1.090178 3.087322,0.918393 4.412381,-0.383214 z"
     id="path10"
     style="stroke-width:0.66664" />
  <path
     class="cls-2"
     d="m 30.346804,61.021259 c 1.345238,-1.321429 1.49994,-3.244107 0.390119,-4.334286 -1.224167,-1.2025 -4.311488,-0.455893 -6.484048,-1.651786 1.217441,2.134108 0.457381,5.166786 1.681548,6.369286 1.109821,1.090179 3.087321,0.918393 4.412381,-0.383214 z"
     id="path12"
     style="stroke-width:0.66664" />
  <path
     class="cls-2"
     d="m 37.523649,52.266795 c 2.186012,-2.147322 2.475238,-5.351786 0.672619,-7.148929 -2.017857,-1.982143 -7.102857,-0.746607 -10.68119,-2.715536 2.017857,3.515 0.746607,8.51 2.764464,10.492143 1.802619,1.797143 5.058095,1.519643 7.244107,-0.627678 z"
     id="path14"
     style="stroke-width:0.66664" />
  <path
     class="cls-2"
     d="m 49.220494,24.463938 c -1.345238,1.321428 -3.302559,1.473392 -4.412381,0.376607 -1.224166,-1.195893 -0.464107,-4.228572 -1.674821,-6.362679 2.165833,1.195893 5.253155,0.442679 6.477321,1.645179 1.109822,1.096785 0.934941,3.032678 -0.390119,4.340893 z"
     id="path16"
     style="stroke-width:0.66664" />
  <path
     class="cls-2"
     d="m 61.011506,30.965366 c -1.345238,1.321429 -3.302559,1.473393 -4.412381,0.383214 -1.224167,-1.2025 -0.464107,-4.235178 -1.681547,-6.369285 2.172559,1.195893 5.25988,0.449285 6.484047,1.651785 1.109822,1.090179 0.934941,3.032679 -0.390119,4.334286 z"
     id="path18"
     style="stroke-width:0.66664" />
  <path
     class="cls-2"
     d="m 61.367994,41.464116 c -1.062738,1.043929 -2.636666,1.176072 -3.524524,0.310536 -0.887857,-0.865536 -0.36994,-3.382857 -1.345238,-5.080893 1.728631,0.951429 4.197143,0.350179 5.172441,1.321429 0.894583,0.858928 0.753333,2.411607 -0.302679,3.448928 z"
     id="path20"
     style="stroke-width:0.66664" />
  <path
     class="cls-2"
     d="m 40.853113,61.615902 c -1.056012,1.037321 -2.636666,1.176071 -3.524524,0.303928 -0.887857,-0.872143 -0.363214,-3.382857 -1.345238,-5.080893 1.735358,0.951429 4.197143,0.356786 5.179167,1.321429 0.887857,0.865536 0.753333,2.418214 -0.309405,3.455536 z"
     id="path22"
     style="stroke-width:0.66664" />
  <path
     class="cls-2"
     d="m 52.099304,38.015188 c -2.186012,2.147321 -5.448215,2.431428 -7.277738,0.627678 -2.017857,-1.982143 -0.76006,-6.970536 -2.764465,-10.485536 3.578334,1.962322 8.663334,0.706965 10.681191,2.689108 1.829524,1.823571 1.547024,5.021428 -0.638988,7.16875 z"
     id="path24"
     style="stroke-width:0.66664" />
</svg>
