<?xml version="1.0" encoding="UTF-8" standalone="no"?>
<svg
   id="Layer_1"
   data-name="Layer 1"
   viewBox="0 0 81.67 81.67"
   version="1.1"
   xmlns="http://www.w3.org/2000/svg"
   xmlns:svg="http://www.w3.org/2000/svg">
  <defs
     id="defs4">
    <style
       id="style2">.cls-1{fill:#3ca5ab;}.cls-2{fill:#97d2f0;}.cls-3{fill:#fff;}</style>
  </defs>
  <ellipse
     style="fill:#00a7e1;stroke-width:0.290723;fill-opacity:1"
     id="path1238"
     cx="41.228397"
     cy="40.284237"
     rx="38.081196"
     ry="37.451756" />
  <rect
     class="cls-1"
     x="49.064915"
     y="49.096889"
     width="0.062051281"
     height="0.061025642"
     id="rect6"
     style="stroke-width:0.769204" />
  <path
     class="cls-2"
     d="m 58.132159,59.181376 c 0,0 -10.509936,5.301602 -17.064103,-3.097052 0,0 -7.360833,-7.757884 0.775641,-17.316026 0,0 9.067244,-9.047051 -1.186731,-19.001859 0,0 -11.820769,-10.2065383 -21.547308,5.95 0,0 -3.940256,6.201731 -3.552436,13.440898 0,0 0.263718,23.906795 25.759039,25.585 0,0 7.360833,1.029808 16.815898,-5.560961 z"
     id="path8"
     style="stroke-width:0.769204" />
  <path
     class="cls-3"
     d="m 21.118569,54.924837 c 0,0 -5.429488,-10.343846 3.149102,-16.782051 0,0 7.888269,-7.231539 17.614808,0.76282 0,0 9.191346,8.917372 19.313462,-1.159487 0,0 10.378077,-11.633013 -6.042244,-21.198782 0,0 -6.313718,-3.875129 -13.666795,-3.48609 0,0 -24.30859,0.259359 -26.022757,25.325641 0,0 -1.047115,7.231539 5.654424,16.537949 z"
     id="path10"
     style="stroke-width:0.769204" />
</svg>
