<?xml version="1.0" encoding="UTF-8" standalone="no"?>
<svg
   id="Layer_1"
   data-name="Layer 1"
   viewBox="0 0 81.67 81.67"
   version="1.1"
   xmlns="http://www.w3.org/2000/svg"
   xmlns:svg="http://www.w3.org/2000/svg">
  <defs
     id="defs4">
    <style
       id="style2">.cls-1{fill:#fff;}.cls-2{fill:#8ea393;}</style>
  </defs>
  <circle
     style="fill:#295135;fill-opacity:1;stroke-width:0.298847"
     id="path858"
     cx="41.392639"
     cy="40.057396"
     r="37.831985" />
  <path
     class="cls-1"
     d="m 43.602627,28.335547 c 0,0 -1.288838,6.064652 14.533023,13.647442 15.181396,13.331164 -4.839069,26.093024 -4.839069,26.093024 L 51.67565,63.82206 c 0,0 6.784186,-8.183722 -1.288837,-17.276745 C 42.313789,37.452292 37.47472,31.063455 43.602627,28.335547 Z"
     id="path6"
     style="stroke-width:0.790698" />
  <path
     class="cls-2"
     d="m 40.028674,26.516943 c 0,0 -7.116279,9.701861 8.073023,21.222325 7.116279,10.611164 2.261395,14.232559 2.261395,14.232559 l -8.073023,-5.455814 c 0,0 -0.324186,-7.906977 -5.487442,-11.860466 -5.163255,-3.953488 -9.670232,-13.252092 3.226047,-18.138604 z"
     id="path8"
     style="stroke-width:0.790698" />
  <path
     class="cls-2"
     d="m 39.087743,23.789036 c 0,0 -13.560465,6.665581 -9.338139,14.857209 0.640465,5.455814 9.678139,10.611163 10.326511,16.667908 L 28.452859,50.767641 c 0,0 -20.0520929,-19.704186 10.634884,-27.587443"
     id="path10"
     style="stroke-width:0.790698" />
  <path
     class="cls-1"
     d="m 40.700766,21.361594 c 0,0 -30.046512,1.826512 -18.407441,26.093023 -12.271629,-9.725581 -2.261396,-20.937674 -2.261396,-20.937674 0,0 10.334419,-10.310698 20.668837,-5.155349 z"
     id="path12"
     style="stroke-width:0.790698" />
  <path
     class="cls-1"
     d="m 62.010069,22.579268 h -5.811628 a 4.4041861,4.4041861 0 0 1 -4.839069,0.300466 c -0.324187,0.300464 -9.693954,0.300464 -9.693954,0.300464 0,0 -1.771163,3.03628 1.937209,3.03628 3.708372,0 2.427442,-0.150233 2.427442,-0.150233 v 4.846977 c 0,0 1.581395,3.787442 5.329303,4.095814 a 85.980466,85.980466 0 0 0 10.018139,-0.15814 2.1823256,2.1823256 0 0 0 2.419535,1.067442 c 0.790698,-0.458604 0.324186,-3.486976 0.324186,-3.486976 0,0 -0.490233,-1.668373 -1.77907,-0.150233 -1.288837,1.518139 -6.127907,0.150233 -5.969767,-1.367907 0.158139,-1.518139 1.130697,-2.269303 6.942325,-1.968837 2.419535,-1.059535 0,-3.028372 0,-3.028372 0,0 -2.269302,-0.308372 -0.490233,-1.668372 1.77907,-1.36 -0.972558,-1.367907 -0.814418,-1.668373 z"
     id="path14"
     style="stroke-width:0.790698" />
  <path
     class="cls-1"
     d="M 54.909604,21.061129 H 44.250999 c 0,0 -4.83907,-4.854884 -15.173489,-2.427442 14.691164,-6.325581 19.047908,0.308372 19.047908,0.308372 0,0 6.46,-0.450698 6.784186,2.11907 z"
     id="path16"
     style="stroke-width:0.790698" />
</svg>
