<?xml version="1.0" encoding="UTF-8" standalone="no"?>
<svg
   id="Layer_1"
   data-name="Layer 1"
   viewBox="0 0 81.67 81.67"
   version="1.1"
   xmlns="http://www.w3.org/2000/svg"
   xmlns:svg="http://www.w3.org/2000/svg">
  <defs
     id="defs4">
    <style
       id="style2">.cls-1{fill:#fff;}.cls-2{fill:#d89392;}</style>
  </defs>
  <circle
     style="fill:#a32035;fill-opacity:1;stroke-width:0.24405"
     id="path856"
     cx="41.228397"
     cy="41.228394"
     r="35.563431" />
  <path
     class="cls-1"
     d="m 61.781171,20.007918 a 11.492927,11.492927 0 0 1 -3.307318,-9.04 H 42.369057 L 10.839301,42.488487 V 56.829382 A 11.502114,11.502114 0 0 1 25.060764,70.536374 H 40.67865 L 70.416943,40.816455 V 23.36117 a 11.502114,11.502114 0 0 1 -8.635772,-3.353252 z"
     id="path6"
     style="stroke-width:0.918699" />
  <path
     class="cls-2"
     d="M 58.473853,10.967918 A 11.48374,11.48374 0 0 0 70.416943,23.36117 V 10.967918 Z"
     id="path8"
     style="stroke-width:0.918699" />
  <path
     class="cls-2"
     d="M 21.992309,59.79678 A 11.502114,11.502114 0 0 0 10.839301,56.829382 V 70.536374 H 25.060764 A 11.474553,11.474553 0 0 0 21.992309,59.79678 Z"
     id="path10"
     style="stroke-width:0.918699" />
  <circle
     class="cls-2"
     cx="32.538975"
     cy="49.250111"
     r="11.520488"
     id="circle12"
     style="stroke-width:0.918699" />
  <circle
     class="cls-2"
     cx="51.234505"
     cy="30.554585"
     r="11.520488"
     id="circle14"
     style="stroke-width:0.918699" />
</svg>
